<svg width="200" height="54" viewBox="0 0 200 54" fill="none" xmlns="http://www.w3.org/2000/svg">
<rect width="200" height="53.3333" rx="2.66667" fill="#00BFF2"/>
<path d="M15.2526 40.9622V14.0013H27.5247C33.0377 14.0013 35.7942 16.4117 35.7942 21.2324C35.7942 24.4924 33.6482 27.1923 29.3561 29.332L37.9088 41H31.6028L23.3899 29.2376V26.9531C28.1729 26.135 30.5644 24.2784 30.5644 21.3835C30.5644 19.3947 29.4442 18.4004 27.2037 18.4004H20.3502V40.9622H15.2526ZM40.2877 41V14.0013H45.4798L54.6367 34.4863L63.6048 14.0013H68.608V41H63.9824V22.1953L56.6569 41H52.3899L44.9134 22.1953V41H40.2877ZM78.5201 27.4251C78.5201 33.7059 81.3081 36.8464 86.8841 36.8464C92.3216 36.8464 95.0403 33.7059 95.0403 27.4251C95.0403 21.245 92.3216 18.1549 86.8841 18.1549C81.3081 18.1549 78.5201 21.245 78.5201 27.4251ZM73.3281 27.5384C73.3281 18.3878 77.8467 13.8125 86.8841 13.8125C95.7829 13.8125 100.232 18.3878 100.232 27.5384C100.232 36.6387 95.7829 41.1888 86.8841 41.1888C78.2495 41.1888 73.7309 36.6387 73.3281 27.5384ZM130.686 14.0013L118.848 41H113.467L102.139 14.0013H108.087L116.45 34.6751L124.796 14.0013H130.686ZM138.521 14.0013V41H133.518V14.0013H138.521ZM162.688 14.0013V18.306H149.17V25.1029H162.046V29.5775H149.113V36.6576H162.952V41H144.204V14.0013H162.688ZM167.106 39.8672V35.3359C169.812 36.3429 172.871 36.8464 176.282 36.8464C180.423 36.8464 182.493 35.4618 182.493 32.6927C182.493 30.6788 181.222 29.6719 178.68 29.6719H174.45C168.925 29.6719 166.162 27.1545 166.162 22.1198C166.162 16.5816 170.095 13.8125 177.962 13.8125C180.983 13.8125 183.847 14.253 186.553 15.1341V19.6654C183.847 18.6584 180.983 18.1549 177.962 18.1549C173.431 18.1549 171.165 19.4766 171.165 22.1198C171.165 24.1337 172.26 25.1406 174.45 25.1406H178.68C184.558 25.1406 187.497 27.658 187.497 32.6927C187.497 38.3568 183.758 41.1888 176.282 41.1888C172.871 41.1888 169.812 40.7483 167.106 39.8672Z" fill="white"/>
<path d="M15.2526 40.9622H14.2402V41.9746H15.2526V40.9622ZM15.2526 14.0013V12.989H14.2402V14.0013H15.2526ZM29.3561 29.332L28.9044 28.426L27.8296 28.9619L28.5396 29.9305L29.3561 29.332ZM37.9088 41V42.0123H39.9061L38.7253 40.4015L37.9088 41ZM31.6028 41L30.7728 41.5796L31.075 42.0123H31.6028V41ZM23.3899 29.2376H22.3776V29.5561L22.5599 29.8172L23.3899 29.2376ZM23.3899 26.9531L23.2193 25.9553L22.3776 26.0992V26.9531H23.3899ZM20.3502 18.4004V17.388H19.3379V18.4004H20.3502ZM20.3502 40.9622V41.9746H21.3626V40.9622H20.3502ZM16.2649 40.9622V14.0013H14.2402V40.9622H16.2649ZM15.2526 15.0136H27.5247V12.989H15.2526V15.0136ZM27.5247 15.0136C30.156 15.0136 31.9405 15.5918 33.0605 16.5712C34.1545 17.5278 34.7819 19.0161 34.7819 21.2324H36.8066C36.8066 18.628 36.0557 16.5007 34.3932 15.047C32.7567 13.616 30.4064 12.989 27.5247 12.989V15.0136ZM34.7819 21.2324C34.7819 23.9402 33.0352 26.3667 28.9044 28.426L29.8078 30.238C34.2611 28.0179 36.8066 25.0446 36.8066 21.2324H34.7819ZM28.5396 29.9305L37.0923 41.5985L38.7253 40.4015L30.1726 28.7335L28.5396 29.9305ZM37.9088 39.9877H31.6028V42.0123H37.9088V39.9877ZM32.4329 40.4204L24.22 28.6581L22.5599 29.8172L30.7728 41.5796L32.4329 40.4204ZM24.4023 29.2376V26.9531H22.3776V29.2376H24.4023ZM23.5606 27.951C26.0276 27.529 28.0081 26.8208 29.3916 25.7468C30.8212 24.6369 31.5768 23.16 31.5768 21.3835H29.5521C29.5521 22.5019 29.1119 23.4007 28.15 24.1474C27.142 24.93 25.5353 25.5591 23.2193 25.9553L23.5606 27.951ZM31.5768 21.3835C31.5768 20.1997 31.2378 19.136 30.3963 18.3891C29.5778 17.6625 28.4523 17.388 27.2037 17.388V19.4127C28.1957 19.4127 28.7505 19.6355 29.0522 19.9033C29.3309 20.1506 29.5521 20.5785 29.5521 21.3835H31.5768ZM27.2037 17.388H20.3502V19.4127H27.2037V17.388ZM19.3379 18.4004V40.9622H21.3626V18.4004H19.3379ZM20.3502 39.9499H15.2526V41.9746H20.3502V39.9499ZM40.2877 41H39.2754V42.0123H40.2877V41ZM40.2877 14.0013V12.989H39.2754V14.0013H40.2877ZM45.4798 14.0013L46.404 13.5882L46.1361 12.989H45.4798V14.0013ZM54.6367 34.4863L53.7125 34.8995L54.6463 36.9886L55.5641 34.8923L54.6367 34.4863ZM63.6048 14.0013V12.989H62.9429L62.6774 13.5953L63.6048 14.0013ZM68.608 14.0013H69.6204V12.989H68.608V14.0013ZM68.608 41V42.0123H69.6204V41H68.608ZM63.9824 41H62.97V42.0123H63.9824V41ZM63.9824 22.1953H64.9947L63.0391 21.8278L63.9824 22.1953ZM56.6569 41V42.0123H57.3489L57.6002 41.3675L56.6569 41ZM52.3899 41L51.4492 41.374L51.703 42.0123H52.3899V41ZM44.9134 22.1953L45.8541 21.8213L43.901 22.1953H44.9134ZM44.9134 41V42.0123H45.9257V41H44.9134ZM41.3001 41V14.0013H39.2754V41H41.3001ZM40.2877 15.0136H45.4798V12.989H40.2877V15.0136ZM44.5556 14.4144L53.7125 34.8995L55.5609 34.0732L46.404 13.5882L44.5556 14.4144ZM55.5641 34.8923L64.5322 14.4073L62.6774 13.5953L53.7093 34.0803L55.5641 34.8923ZM63.6048 15.0136H68.608V12.989H63.6048V15.0136ZM67.5957 14.0013V41H69.6204V14.0013H67.5957ZM68.608 39.9877H63.9824V42.0123H68.608V39.9877ZM64.9947 41V22.1953H62.97V41H64.9947ZM63.0391 21.8278L55.7136 40.6325L57.6002 41.3675L64.9257 22.5628L63.0391 21.8278ZM56.6569 39.9877H52.3899V42.0123H56.6569V39.9877ZM53.3307 40.626L45.8541 21.8213L43.9727 22.5693L51.4492 41.374L53.3307 40.626ZM43.901 22.1953V41H45.9257V22.1953H43.901ZM44.9134 39.9877H40.2877V42.0123H44.9134V39.9877ZM73.3281 27.5384H72.3157V27.5608L72.3167 27.5832L73.3281 27.5384ZM77.5078 27.4251C77.5078 30.6939 78.2307 33.3345 79.8541 35.1631C81.4979 37.0147 83.9068 37.8587 86.8841 37.8587V35.834C84.2854 35.834 82.5124 35.1078 81.3682 33.819C80.2036 32.5072 79.5325 30.4372 79.5325 27.4251H77.5078ZM86.8841 37.8587C89.8 37.8587 92.1596 37.0099 93.7666 35.1537C95.3495 33.3253 96.0527 30.6887 96.0527 27.4251H94.028C94.028 30.4424 93.3718 32.5164 92.2359 33.8284C91.1241 35.1126 89.4057 35.834 86.8841 35.834V37.8587ZM96.0527 27.4251C96.0527 24.2086 95.348 21.6071 93.7613 19.8038C92.1529 17.9757 89.7949 17.1426 86.8841 17.1426V19.1673C89.4107 19.1673 91.1309 19.8793 92.2412 21.1412C93.3733 22.4279 94.028 24.4615 94.028 27.4251H96.0527ZM86.8841 17.1426C83.9116 17.1426 81.5046 17.971 79.8595 19.7943C78.2323 21.5979 77.5078 24.2033 77.5078 27.4251H79.5325C79.5325 24.4669 80.202 22.4372 81.3628 21.1506C82.5057 19.8839 84.2806 19.1673 86.8841 19.1673V17.1426ZM74.3404 27.5384C74.3404 23.116 75.4321 19.9858 77.4374 17.9553C79.4404 15.9272 82.5247 14.8248 86.8841 14.8248V12.8002C82.2062 12.8002 78.5125 13.9854 75.9968 16.5326C73.4834 19.0775 72.3157 22.8102 72.3157 27.5384H74.3404ZM86.8841 14.8248C91.1702 14.8248 94.2005 15.925 96.1696 17.9498C98.1437 19.9798 99.22 23.1122 99.22 27.5384H101.245C101.245 22.814 100.096 19.0835 97.6211 16.5382C95.1407 13.9876 91.4968 12.8002 86.8841 12.8002V14.8248ZM99.22 27.5384C99.22 31.9381 98.1444 35.0509 96.1715 37.0684C94.2027 39.0818 91.1716 40.1765 86.8841 40.1765V42.2011C91.4954 42.2011 95.1385 41.0208 97.6191 38.484C100.096 35.9514 101.245 32.239 101.245 27.5384H99.22ZM86.8841 40.1765C82.7402 40.1765 79.7482 39.0876 77.7375 37.0629C75.718 35.0293 74.5344 31.8975 74.3394 27.4936L72.3167 27.5832C72.5246 32.2796 73.8017 35.973 76.3008 38.4896C78.8088 41.0149 82.3934 42.2011 86.8841 42.2011V40.1765ZM130.686 14.0013L131.613 14.4078L132.235 12.989H130.686V14.0013ZM118.848 41V42.0123H119.51L119.775 41.4065L118.848 41ZM113.467 41L112.534 41.3917L112.794 42.0123H113.467V41ZM102.139 14.0013V12.989H100.617L101.206 14.393L102.139 14.0013ZM108.087 14.0013L109.025 13.6216L108.769 12.989H108.087V14.0013ZM116.45 34.6751L115.512 35.0548L116.452 37.3771L117.389 35.0541L116.45 34.6751ZM124.796 14.0013V12.989H124.112L123.857 13.6224L124.796 14.0013ZM129.759 13.5948L117.921 40.5935L119.775 41.4065L131.613 14.4078L129.759 13.5948ZM118.848 39.9877H113.467V42.0123H118.848V39.9877ZM114.401 40.6083L103.073 13.6096L101.206 14.393L112.534 41.3917L114.401 40.6083ZM102.139 15.0136H108.087V12.989H102.139V15.0136ZM107.148 14.381L115.512 35.0548L117.389 34.2955L109.025 13.6216L107.148 14.381ZM117.389 35.0541L125.734 14.3802L123.857 13.6224L115.512 34.2962L117.389 35.0541ZM124.796 15.0136H130.686V12.989H124.796V15.0136ZM138.521 14.0013H139.534V12.989H138.521V14.0013ZM138.521 41V42.0123H139.534V41H138.521ZM133.518 41H132.506V42.0123H133.518V41ZM133.518 14.0013V12.989H132.506V14.0013H133.518ZM137.509 14.0013V41H139.534V14.0013H137.509ZM138.521 39.9877H133.518V42.0123H138.521V39.9877ZM134.531 41V14.0013H132.506V41H134.531ZM133.518 15.0136H138.521V12.989H133.518V15.0136ZM162.688 14.0013H163.7V12.989H162.688V14.0013ZM162.688 18.306V19.3183H163.7V18.306H162.688ZM149.17 18.306V17.2936H148.158V18.306H149.17ZM149.17 25.1029H148.158V26.1152H149.17V25.1029ZM162.046 25.1029H163.059V24.0905H162.046V25.1029ZM162.046 29.5775V30.5898H163.059V29.5775H162.046ZM149.113 29.5775V28.5651H148.101V29.5775H149.113ZM149.113 36.6576H148.101V37.6699H149.113V36.6576ZM162.952 36.6576H163.965V35.6452H162.952V36.6576ZM162.952 41V42.0123H163.965V41H162.952ZM144.204 41H143.192V42.0123H144.204V41ZM144.204 14.0013V12.989H143.192V14.0013H144.204ZM161.676 14.0013V18.306H163.7V14.0013H161.676ZM162.688 17.2936H149.17V19.3183H162.688V17.2936ZM148.158 18.306V25.1029H150.182V18.306H148.158ZM149.17 26.1152H162.046V24.0905H149.17V26.1152ZM161.034 25.1029V29.5775H163.059V25.1029H161.034ZM162.046 28.5651H149.113V30.5898H162.046V28.5651ZM148.101 29.5775V36.6576H150.126V29.5775H148.101ZM149.113 37.6699H162.952V35.6452H149.113V37.6699ZM161.94 36.6576V41H163.965V36.6576H161.94ZM162.952 39.9877H144.204V42.0123H162.952V39.9877ZM145.217 41V14.0013H143.192V41H145.217ZM144.204 15.0136H162.688V12.989H144.204V15.0136ZM167.106 39.8672H166.094V40.6022L166.793 40.8298L167.106 39.8672ZM167.106 35.3359L167.459 34.3871L166.094 33.8791V35.3359H167.106ZM186.553 15.1341H187.565V14.3991L186.866 14.1715L186.553 15.1341ZM186.553 19.6654L186.2 20.6142L187.565 21.1222V19.6654H186.553ZM168.118 39.8672V35.3359H166.094V39.8672H168.118ZM166.753 36.2847C169.591 37.3406 172.772 37.8587 176.282 37.8587V35.834C172.97 35.834 170.034 35.3452 167.459 34.3871L166.753 36.2847ZM176.282 37.8587C178.433 37.8587 180.224 37.5048 181.503 36.6495C182.855 35.7459 183.506 34.3708 183.506 32.6927H181.481C181.481 33.7837 181.097 34.4854 180.378 34.9664C179.586 35.4956 178.271 35.834 176.282 35.834V37.8587ZM183.506 32.6927C183.506 31.4588 183.105 30.3749 182.169 29.6335C181.278 28.9278 180.057 28.6595 178.68 28.6595V30.6842C179.845 30.6842 180.531 30.9194 180.911 31.2206C181.247 31.4862 181.481 31.9127 181.481 32.6927H183.506ZM178.68 28.6595H174.45V30.6842H178.68V28.6595ZM174.45 28.6595C171.822 28.6595 170.039 28.0587 168.916 27.0356C167.811 26.0287 167.174 24.4556 167.174 22.1198H165.15C165.15 24.8187 165.895 27.0217 167.552 28.5322C169.192 30.0264 171.554 30.6842 174.45 30.6842V28.6595ZM167.174 22.1198C167.174 19.6227 168.041 17.8812 169.695 16.7171C171.413 15.5072 174.117 14.8248 177.962 14.8248V12.8002C173.941 12.8002 170.744 13.5023 168.529 15.0615C166.25 16.6665 165.15 19.0787 165.15 22.1198H167.174ZM177.962 14.8248C180.883 14.8248 183.64 15.2506 186.239 16.0967L186.866 14.1715C184.053 13.2555 181.083 12.8002 177.962 12.8002V14.8248ZM185.54 15.1341V19.6654H187.565V15.1341H185.54ZM186.906 18.7166C184.081 17.6657 181.098 17.1426 177.962 17.1426V19.1673C180.868 19.1673 183.612 19.6512 186.2 20.6142L186.906 18.7166ZM177.962 17.1426C175.631 17.1426 173.717 17.4767 172.354 18.2717C170.908 19.1157 170.153 20.4416 170.153 22.1198H172.178C172.178 21.1548 172.556 20.4983 173.375 20.0206C174.277 19.494 175.762 19.1673 177.962 19.1673V17.1426ZM170.153 22.1198C170.153 23.3056 170.479 24.3747 171.301 25.1306C172.107 25.8718 173.219 26.153 174.45 26.153V24.1283C173.491 24.1283 172.961 23.906 172.672 23.6402C172.399 23.3892 172.178 22.9478 172.178 22.1198H170.153ZM174.45 26.153H178.68V24.1283H174.45V26.153ZM178.68 26.153C181.498 26.153 183.422 26.7597 184.634 27.7975C185.815 28.8096 186.484 30.3759 186.484 32.6927H188.509C188.509 29.9748 187.708 27.7651 185.951 26.2598C184.224 24.7802 181.74 24.1283 178.68 24.1283V26.153ZM186.484 32.6927C186.484 35.2815 185.645 37.0737 184.082 38.2578C182.466 39.4821 179.921 40.1765 176.282 40.1765V42.2011C180.119 42.2011 183.182 41.4794 185.304 39.8717C187.48 38.2238 188.509 35.7679 188.509 32.6927H186.484ZM176.282 40.1765C172.957 40.1765 170.007 39.7469 167.419 38.9046L166.793 40.8298C169.618 41.7496 172.785 42.2011 176.282 42.2011V40.1765Z" fill="white"/>
</svg>
